<svg id="Capa_1" enable-background="new 0 0 512 512" height="512" viewBox="0 0 512 512" width="512" xmlns="http://www.w3.org/2000/svg"><g><path d="m330.594 348.052-22.258-10.359h-104.622l-22.258 10.359c-15.517 7.222-25.44 22.785-25.44 39.9v116.524c0 4.155 3.369 7.524 7.524 7.524h184.971c4.155 0 7.524-3.369 7.524-7.524v-116.524c0-17.116-9.923-32.679-25.441-39.9z" fill="#80b4fb"/><path d="m330.594 348.052-22.258-10.358c-19.997-9.628-29.933-7.815-25.53 10.302l22.258 10.359c15.517 7.222 25.44 22.785 25.44 39.9v110.343c0 1.226-.3 2.38-.82 3.403h18.826c4.155 0 7.524-3.369 7.524-7.524v-116.525c.001-17.116-9.922-32.679-25.44-39.9z" fill="#61a2f9"/><g><path d="m321.592 457.348h-35.917c-4.267 0-7.726-3.459-7.726-7.726s3.459-7.726 7.726-7.726h35.917c4.267 0 7.726 3.459 7.726 7.726s-3.458 7.726-7.726 7.726z" fill="#365e7d"/></g><path d="m255.999 96.821c-59.36 0-107.547 48.002-107.777 107.361-.173 44.605-4.247 83.042-20.328 101.622-1.335 1.542-.663 3.949 1.292 4.529 84.541 25.089 169.083 25.089 253.624 0 1.955-.58 2.627-2.987 1.292-4.529-16.08-18.58-20.155-57.017-20.328-101.622-.228-59.359-48.415-107.361-107.775-107.361z" fill="#365e7d"/><path d="m229.865 108.153c59.459 0 107.528 48.153 107.778 107.611.187 44.387 4.259 82.631 20.209 101.228 8.321-1.983 16.641-4.196 24.962-6.661 1.955-.579 2.626-2.984 1.291-4.526-16.081-18.579-20.156-57.017-20.329-101.623-.23-59.359-48.417-107.361-107.777-107.361-20.307 0-39.305 5.62-55.524 15.389 9.344-2.643 19.202-4.057 29.39-4.057z" fill="#2b4d66"/><path d="m234.037 354.171-6.97 28.931c-1.066 4.424.84 9.03 4.719 11.408l18.752 11.496c3.367 2.064 7.607 2.064 10.974 0l18.752-11.496c3.879-2.378 5.785-6.985 4.719-11.408l-6.97-28.931c-6.985-14.843-36.986-15.897-43.976 0z" fill="#ffcbbe"/><path d="m178.886 215.701c-1.409-.155-2.645.936-2.645 2.353v27.141 30.891 1.395c0 44.063 35.72 79.784 79.784 79.784 44.063 0 79.784-35.72 79.784-79.784v-60.006c0-1.19-.884-2.187-2.063-2.35-19.991-2.762-37.402-9.046-50.495-21.221-.86-.8-2.155-.873-3.09-.162-26.925 20.451-61.428 26.34-101.275 21.959z" fill="#ffddce"/><path d="m333.74 215.124c-18.574-2.567-36.762-8.455-50.489-21.22-.86-.8-2.155-.873-3.09-.163-26.925 20.452-61.428 26.341-101.275 21.96-1.409-.155-2.645.936-2.645 2.353v12.423c0-1.417 1.236-2.508 2.645-2.353 39.846 4.381 74.349 1.583 101.273-18.868.922-.7 2.211-.66 3.057.129 6.294 5.867 13.591 8.67 21.692 11.181 5.287 1.639 8.912 6.501 8.912 12.037v44.878c0 40.331-29.932 73.652-68.79 79.011 3.596.496 7.262.772 10.994.772 44.063 0 79.784-35.72 79.784-79.784 0-3.908 0-63.606 0-60.006.001-1.192-.886-2.187-2.068-2.35z" fill="#ffcbbe"/><g><path d="m226.375 264.052c-4.267 0-7.726-3.459-7.726-7.726v-.907c0-4.267 3.459-7.726 7.726-7.726 4.268 0 7.726 3.459 7.726 7.726v.907c0 4.268-3.459 7.726-7.726 7.726z" fill="#2b4d66"/></g><g><path d="m285.676 264.052c-4.267 0-7.726-3.459-7.726-7.726v-.907c0-4.267 3.459-7.726 7.726-7.726s7.726 3.459 7.726 7.726v.907c0 4.268-3.459 7.726-7.726 7.726z" fill="#2b4d66"/></g><g><path d="m256.026 310.907c-6.227 0-12.453-1.811-18.507-5.431-3.663-2.191-4.855-6.934-2.665-10.596 2.192-3.662 6.936-4.854 10.596-2.665 7.214 4.316 13.933 4.317 21.149 0 3.658-2.187 8.404-.999 10.596 2.665 2.19 3.662.998 8.405-2.665 10.596-6.052 3.62-12.278 5.431-18.504 5.431z" fill="#dd636e"/></g><path d="m260.699 2.638 22.433 36.776c.764 1.253 1.997 2.149 3.425 2.488l41.908 9.97c4.008.953 5.586 5.81 2.904 8.937l-28.044 32.699c-.955 1.114-1.426 2.563-1.308 4.026l3.468 42.938c.332 4.106-3.8 7.108-7.603 5.524l-39.765-16.567c-1.355-.564-2.879-.564-4.233 0l-39.765 16.567c-3.803 1.584-7.934-1.417-7.603-5.524l3.468-42.938c.118-1.463-.353-2.912-1.308-4.026l-28.044-32.698c-2.682-3.127-1.104-7.984 2.904-8.937l41.908-9.97c1.428-.34 2.661-1.235 3.425-2.488l22.433-36.776c2.145-3.518 7.251-3.518 9.397-.001z" fill="#ffd064"/><path d="m258.117 129.429 39.765 16.567c3.803 1.584 7.934-1.417 7.602-5.524l-3.468-42.938c-.118-1.463.353-2.912 1.308-4.026l28.044-32.699c2.682-3.127 1.104-7.984-2.904-8.937l-41.908-9.97c-1.428-.34-2.661-1.235-3.425-2.488l-22.432-36.776c-1.073-1.759-2.886-2.638-4.699-2.638 13.816 52.194 16.561 97.023 0 129.006.72 0 1.439.141 2.117.423z" fill="#ffc250"/><path d="m104.727 62.626 13.074 21.433c.445.73 1.164 1.252 1.996 1.45l24.424 5.811c2.336.556 3.255 3.386 1.692 5.209l-16.344 19.057c-.557.649-.831 1.494-.762 2.346l2.021 25.025c.193 2.393-2.215 4.143-4.431 3.219l-23.175-9.655c-.79-.329-1.678-.329-2.467 0l-23.175 9.655c-2.216.923-4.624-.826-4.431-3.219l2.021-25.025c.069-.853-.206-1.697-.762-2.346l-16.344-19.057c-1.563-1.822-.643-4.653 1.692-5.209l24.424-5.811c.832-.198 1.551-.72 1.996-1.45l13.074-21.433c1.251-2.05 4.227-2.05 5.477 0z" fill="#ffd064"/><path d="m103.223 136.521 23.175 9.655c2.216.923 4.624-.826 4.431-3.219l-2.021-25.024c-.069-.853.206-1.697.762-2.347l16.344-19.057c1.563-1.822.643-4.653-1.692-5.209l-24.424-5.811c-.832-.198-1.551-.72-1.996-1.45l-13.074-21.433c-.625-1.025-1.682-1.537-2.738-1.537 8.052 30.419 9.652 56.545 0 75.185.418 0 .838.082 1.233.247z" fill="#ffc250"/><path d="m412.749 62.626 13.074 21.433c.445.73 1.164 1.252 1.996 1.45l24.424 5.811c2.336.556 3.255 3.386 1.692 5.209l-16.344 19.057c-.557.649-.831 1.494-.762 2.346l2.021 25.025c.193 2.393-2.215 4.143-4.431 3.219l-23.175-9.655c-.79-.329-1.678-.329-2.467 0l-23.175 9.655c-2.216.923-4.624-.826-4.431-3.219l2.021-25.025c.069-.853-.206-1.697-.762-2.346l-16.344-19.057c-1.563-1.822-.643-4.653 1.692-5.209l24.424-5.811c.832-.198 1.551-.72 1.996-1.45l13.074-21.433c1.251-2.05 4.227-2.05 5.477 0z" fill="#ffd064"/><path d="m411.245 136.521 23.175 9.655c2.216.923 4.624-.826 4.431-3.219l-2.021-25.024c-.069-.853.206-1.697.762-2.347l16.344-19.057c1.563-1.822.643-4.653-1.692-5.209l-24.424-5.811c-.832-.198-1.551-.72-1.996-1.45l-13.074-21.433c-.625-1.025-1.682-1.537-2.738-1.537 8.052 30.419 9.652 56.545 0 75.185.418 0 .838.082 1.233.247z" fill="#ffc250"/></g></svg>